<?xml version="1.0" standalone="no"?><!DOCTYPE svg PUBLIC "-//W3C//DTD SVG 1.1//EN" "http://www.w3.org/Graphics/SVG/1.1/DTD/svg11.dtd"><svg width="100%" height="100%" viewBox="0 0 464 86" version="1.1" xmlns="http://www.w3.org/2000/svg" xmlns:xlink="http://www.w3.org/1999/xlink" xml:space="preserve" style="fill-rule:evenodd;clip-rule:evenodd;stroke-linejoin:round;stroke-miterlimit:1.41421;"><g><path d="M21.999,42.014c-2.481,0 -4.383,-0.11 -5.706,-0.331l-1.82,-0.413l0.331,6.533c0.221,4.411 0.414,6.81 0.579,7.196c0.165,0.496 0.8,0.744 1.902,0.744c1.489,0 3.24,-0.372 5.252,-1.117c2.013,-0.744 3.377,-1.585 4.094,-2.522c0.717,-0.937 1.185,-2.398 1.406,-4.383c0.11,-0.883 0.165,-1.462 0.165,-1.737c0,-0.993 -0.358,-1.875 -1.075,-2.647c-0.882,-0.882 -2.591,-1.323 -5.128,-1.323ZM20.345,21.007c-1.268,-0.772 -2.729,-1.158 -4.383,-1.158c-0.882,0 -1.434,0.138 -1.654,0.414c-0.276,0.275 -0.414,2.288 -0.414,6.037c0,3.694 0.138,5.624 0.414,5.789c0.055,0.056 0.138,0.083 0.248,0.083c0.662,0 1.709,-0.565 3.143,-1.695c1.433,-1.131 2.481,-2.22 3.143,-3.267c0.882,-1.434 1.323,-2.619 1.323,-3.556c0,-1.048 -0.607,-1.93 -1.82,-2.647ZM10.007,11.661c0.882,-0.441 2.674,-0.661 5.376,-0.661l1.571,0c2.206,0.055 3.764,0.206 4.673,0.455c0.91,0.248 2.027,0.758 3.35,1.53c2.04,1.268 3.611,2.701 4.714,4.3c1.268,1.875 1.902,3.97 1.902,6.286c0,1.985 -0.468,3.915 -1.406,5.789c-0.882,1.765 -1.323,2.867 -1.323,3.308c0,0.386 0.717,0.993 2.15,1.82c1.268,0.661 2.73,2.26 4.384,4.797c0.882,1.488 1.461,2.646 1.736,3.473c0.276,0.827 0.414,1.958 0.414,3.391c-0.055,5.404 -1.544,9.635 -4.466,12.695c-2.922,3.06 -7.471,5.114 -13.646,6.162c-1.048,0.165 -2.068,0.248 -3.06,0.248c-2.592,0 -5.101,-1.02 -7.527,-3.06l-2.398,-2.068l-0.414,-7.36c-1.047,-16.376 -1.571,-26.742 -1.571,-31.097c0,-1.379 0.028,-2.261 0.083,-2.647c0.275,-1.599 0.91,-3.088 1.902,-4.466c0.992,-1.378 2.178,-2.343 3.556,-2.895Z" style="fill:#fff;fill-rule:nonzero;"/><path d="M68.066,30.187c-0.882,-0.772 -1.571,-1.158 -2.068,-1.158c-0.606,0 -1.612,0.814 -3.018,2.44c-1.406,1.627 -2.799,3.598 -4.177,5.914c-1.434,2.426 -2.15,4.162 -2.15,5.21c0,0.496 0.027,0.882 0.082,1.158c0.386,3.032 2.013,5.348 4.88,6.947l2.316,1.323l4.797,-1.158c3.142,-0.772 4.907,-1.406 5.293,-1.902c1.158,-1.433 1.736,-3.722 1.736,-6.864c0,-0.827 -0.027,-1.434 -0.082,-1.82c-0.221,-1.764 -0.634,-3.046 -1.241,-3.846c-0.606,-0.799 -2.729,-2.88 -6.368,-6.244ZM59.713,20.676c1.378,-0.772 2.757,-1.158 4.135,-1.158c1.82,0 3.226,0.552 4.218,1.654c1.048,1.048 2.426,1.572 4.135,1.572c1.709,0 3.074,0.275 4.094,0.827c1.02,0.551 2.357,1.709 4.011,3.473c1.765,1.93 2.964,3.515 3.598,4.756c0.634,1.241 1.144,3.074 1.53,5.5c0.441,2.757 0.662,4.797 0.662,6.12c0,1.875 -0.414,3.942 -1.241,6.203c-1.268,3.529 -2.84,6.023 -4.714,7.485c-1.875,1.461 -5.211,2.798 -10.007,4.011c-2.868,0.717 -4.88,1.075 -6.038,1.075c-1.764,0 -4.163,-0.8 -7.195,-2.399c-3.363,-1.819 -5.955,-4.176 -7.774,-7.071c-1.82,-2.894 -2.73,-6.023 -2.73,-9.387c0,-2.977 0.745,-5.954 2.233,-8.932c1.158,-2.316 2.978,-5.017 5.459,-8.105c2.481,-3.088 4.356,-4.962 5.624,-5.624Z" style="fill:#fff;fill-rule:nonzero;"/><path d="M134.809,18.443c0.661,-0.496 1.654,-0.744 2.977,-0.744c1.158,0 2.04,0.193 2.647,0.579c1.433,0.717 2.15,1.957 2.15,3.721c0,1.324 -0.386,3.309 -1.158,5.955c-0.331,1.158 -1.378,5.238 -3.143,12.24c-0.882,3.805 -1.985,7.168 -3.308,10.09c-1.323,2.923 -2.591,4.852 -3.804,5.79c-1.048,0.882 -2.592,1.323 -4.632,1.323c-4.19,0 -8.077,-1.351 -11.661,-4.052c-1.489,-1.048 -3.198,-2.923 -5.128,-5.624c-1.985,-2.482 -3.088,-3.722 -3.308,-3.722c-0.165,0 -0.524,2.15 -1.075,6.451c-0.276,2.646 -0.552,4.48 -0.827,5.5c-0.276,1.02 -0.689,1.833 -1.241,2.44c-0.992,1.047 -2.205,1.571 -3.639,1.571c-1.268,0 -2.398,-0.414 -3.391,-1.241c-0.937,-0.772 -1.406,-2.012 -1.406,-3.721c0,-0.221 0.014,-0.607 0.042,-1.158c0.027,-0.552 0.041,-0.993 0.041,-1.324c0.11,-3.639 0.496,-7.471 1.158,-11.495c0.661,-4.025 1.351,-6.7 2.067,-8.023c2.096,-4.08 4.494,-6.12 7.196,-6.12c1.378,0 2.467,0.345 3.267,1.034c0.799,0.689 1.943,2.302 3.432,4.838c5.348,9.263 9.621,13.894 12.819,13.894c0.882,0 2.729,-5.844 5.541,-17.533c0.993,-3.915 1.723,-6.478 2.192,-7.691c0.469,-1.213 1.199,-2.206 2.192,-2.978Z" style="fill:#fff;fill-rule:nonzero;"/><path d="M153.334,1.654c0.993,-1.103 2.096,-1.654 3.309,-1.654c1.268,0 2.481,0.662 3.639,1.985c0.937,1.103 1.406,2.04 1.406,2.812c0,0.386 -0.083,0.965 -0.248,1.737c-0.662,3.969 -2.206,5.954 -4.632,5.954c-0.22,0 -0.662,-0.055 -1.323,-0.165c-2.481,-0.551 -3.722,-2.591 -3.722,-6.12c0,-1.82 0.524,-3.336 1.571,-4.549ZM155.816,24.15c1.102,-0.938 2.178,-1.406 3.225,-1.406c1.048,0 2.095,0.524 3.143,1.571c0.717,0.717 1.158,1.475 1.323,2.275c0.166,0.799 0.248,2.715 0.248,5.748c0,3.363 0.304,7.719 0.91,13.067c0.331,2.591 0.496,4.493 0.496,5.706c0,1.103 -0.11,1.848 -0.331,2.234c-0.992,1.874 -2.426,2.811 -4.3,2.811c-1.103,0 -2.109,-0.385 -3.019,-1.157c-0.91,-0.772 -1.53,-1.82 -1.861,-3.143c-0.386,-1.544 -0.813,-4.742 -1.282,-9.594c-0.468,-4.852 -0.703,-8.656 -0.703,-11.413c0,-0.221 0.014,-0.524 0.042,-0.91c0.027,-0.386 0.041,-0.634 0.041,-0.744c0.11,-1.434 0.303,-2.481 0.579,-3.143c0.276,-0.662 0.772,-1.296 1.489,-1.902Z" style="fill:#fff;fill-rule:nonzero;"/><path d="M198.739,23.488c6.782,-0.441 10.724,-0.689 11.827,-0.744l0.248,0c1.213,0 2.454,0.606 3.722,1.819c1.158,1.158 1.737,2.206 1.737,3.143c0,0.551 -0.166,1.296 -0.496,2.233c-0.442,1.268 -1.338,2.109 -2.688,2.523c-1.351,0.413 -4.039,0.73 -8.064,0.951l-7.278,0.331l-0.331,7.856c-0.055,1.103 -0.083,2.702 -0.083,4.797c0,4.356 0.359,8.877 1.076,13.564c0.11,0.662 0.165,1.103 0.165,1.323c0,0.772 -0.579,1.654 -1.737,2.647c-1.213,1.047 -2.371,1.571 -3.473,1.571c-1.213,0 -2.482,-0.662 -3.805,-1.985c-0.937,-0.937 -1.544,-1.806 -1.819,-2.605c-0.276,-0.799 -0.524,-2.495 -0.745,-5.086c-0.22,-2.978 -0.331,-6.12 -0.331,-9.429c0,-1.764 0.028,-3.032 0.083,-3.804l0.248,-7.609l-2.481,-0.165c-4.08,-0.221 -6.837,-0.703 -8.27,-1.448c-1.434,-0.744 -2.151,-1.998 -2.151,-3.763c0,-2.095 0.607,-3.611 1.82,-4.548c1.213,-0.938 3.198,-1.406 5.955,-1.406c0.937,0 1.654,0.027 2.15,0.082c0.606,0.055 1.875,0.083 3.804,0.083c4.136,0 7.775,-0.11 10.917,-0.331Z" style="fill:#fff;fill-rule:nonzero;"/><path d="M246.956,30.187c-0.882,-0.772 -1.571,-1.158 -2.067,-1.158c-0.607,0 -1.613,0.814 -3.019,2.44c-1.406,1.627 -2.798,3.598 -4.177,5.914c-1.433,2.426 -2.15,4.162 -2.15,5.21c0,0.496 0.028,0.882 0.083,1.158c0.386,3.032 2.012,5.348 4.879,6.947l2.316,1.323l4.797,-1.158c3.143,-0.772 4.907,-1.406 5.293,-1.902c1.158,-1.433 1.737,-3.722 1.737,-6.864c0,-0.827 -0.028,-1.434 -0.083,-1.82c-0.221,-1.764 -0.634,-3.046 -1.241,-3.846c-0.606,-0.799 -2.729,-2.88 -6.368,-6.244ZM238.603,20.676c1.378,-0.772 2.757,-1.158 4.135,-1.158c1.82,0 3.226,0.552 4.218,1.654c1.048,1.048 2.426,1.572 4.135,1.572c1.71,0 3.074,0.275 4.094,0.827c1.02,0.551 2.357,1.709 4.012,3.473c1.764,1.93 2.963,3.515 3.597,4.756c0.634,1.241 1.144,3.074 1.53,5.5c0.441,2.757 0.662,4.797 0.662,6.12c0,1.875 -0.414,3.942 -1.241,6.203c-1.268,3.529 -2.839,6.023 -4.714,7.485c-1.875,1.461 -5.21,2.798 -10.007,4.011c-2.867,0.717 -4.88,1.075 -6.038,1.075c-1.764,0 -4.162,-0.8 -7.195,-2.399c-3.363,-1.819 -5.955,-4.176 -7.774,-7.071c-1.82,-2.894 -2.729,-6.023 -2.729,-9.387c0,-2.977 0.744,-5.954 2.233,-8.932c1.157,-2.316 2.977,-5.017 5.458,-8.105c2.481,-3.088 4.356,-4.962 5.624,-5.624Z" style="fill:#fff;fill-rule:nonzero;"/><path d="M319.819,32.42c-1.323,-3.087 -2.261,-4.631 -2.812,-4.631c-0.276,0 -0.496,0.248 -0.662,0.744c-0.055,0.11 -0.165,0.427 -0.33,0.951c-0.166,0.524 -0.4,1.199 -0.703,2.026c-0.304,0.828 -0.593,1.599 -0.869,2.316c-0.992,2.812 -1.488,4.577 -1.488,5.293c0,0.772 0.606,1.158 1.819,1.158l0.496,0c4.246,-0.165 6.369,-0.91 6.369,-2.233c0,-0.827 -0.607,-2.702 -1.82,-5.624ZM313.285,12.737c1.324,-1.324 2.647,-1.985 3.97,-1.985c3.198,0 6.175,3.969 8.932,11.909c0.772,2.15 1.379,3.501 1.82,4.053c0.22,0.22 1.268,3.06 3.143,8.518c1.599,4.797 3.198,8.739 4.796,11.827c1.434,2.647 2.151,4.852 2.151,6.616c0,1.875 -0.882,3.253 -2.647,4.136c-0.882,0.441 -1.626,0.661 -2.233,0.661c-1.874,0 -3.584,-1.709 -5.127,-5.127c-1.213,-2.647 -2.041,-4.108 -2.482,-4.384c-0.11,-0.055 -0.386,-0.083 -0.827,-0.083c-0.882,0 -2.067,0.138 -3.556,0.414c-1.654,0.331 -4.411,0.689 -8.27,1.075l-4.632,0.414l-2.068,5.045c-2.26,5.679 -4.603,8.518 -7.029,8.518c-1.103,0 -2.151,-0.468 -3.143,-1.406c-0.993,-0.937 -1.489,-1.902 -1.489,-2.894c0,-1.103 1.241,-4.687 3.722,-10.752c2.316,-5.844 4.218,-10.917 5.706,-15.218c0.938,-2.922 1.834,-5.417 2.688,-7.484c0.855,-2.068 1.668,-4.205 2.44,-6.41c1.323,-3.529 2.702,-6.01 4.135,-7.443Z" style="fill:#fff;fill-rule:nonzero;"/><path d="M366.464,10.09c0.552,-0.165 1.241,-0.248 2.068,-0.248c3.033,0 6.258,0.744 9.677,2.233c3.528,1.544 5.293,3.336 5.293,5.376c0,1.102 -0.497,2.288 -1.489,3.556c-0.882,1.213 -2.261,1.819 -4.135,1.819c-1.489,0 -3.06,-0.358 -4.714,-1.075c-1.489,-0.551 -2.84,-0.827 -4.053,-0.827c-2.15,0 -4.177,0.552 -6.079,1.654c-1.902,1.103 -3.322,2.592 -4.259,4.466c-0.662,1.213 -0.993,3.116 -0.993,5.707c0,1.82 0.166,3.046 0.497,3.68c0.331,0.634 1.295,1.723 2.894,3.267c3.088,2.922 6.506,4.384 10.256,4.384c0.606,0 1.571,-0.056 2.894,-0.166c0.772,-0.11 1.655,-0.165 2.647,-0.165c1.158,0 2.15,0.413 2.977,1.24c0.938,0.938 1.406,2.123 1.406,3.557c0,1.654 -0.606,3.06 -1.819,4.218c-0.772,0.772 -1.613,1.24 -2.523,1.406c-0.909,0.165 -2.881,0.248 -5.913,0.248c-2.977,0 -5.059,-0.111 -6.244,-0.331c-1.186,-0.221 -2.661,-0.772 -4.425,-1.654c-4.631,-2.261 -8.491,-5.734 -11.579,-10.421c-0.772,-1.103 -1.268,-2.054 -1.488,-2.853c-0.221,-0.8 -0.331,-2.109 -0.331,-3.929c0,-0.22 0.014,-0.634 0.041,-1.24c0.028,-0.607 0.042,-1.103 0.042,-1.489c0.055,-3.088 0.206,-5.21 0.454,-6.368c0.249,-1.158 0.896,-2.73 1.944,-4.714c1.709,-3.198 3.749,-5.583 6.12,-7.154c2.371,-1.572 5.982,-2.964 10.834,-4.177Z" style="fill:#fff;fill-rule:nonzero;"/><path d="M417.99,32.42c-1.324,-3.087 -2.261,-4.631 -2.812,-4.631c-0.276,0 -0.497,0.248 -0.662,0.744c-0.055,0.11 -0.165,0.427 -0.331,0.951c-0.165,0.524 -0.4,1.199 -0.703,2.026c-0.303,0.828 -0.593,1.599 -0.868,2.316c-0.993,2.812 -1.489,4.577 -1.489,5.293c0,0.772 0.607,1.158 1.82,1.158l0.496,0c4.245,-0.165 6.368,-0.91 6.368,-2.233c0,-0.827 -0.606,-2.702 -1.819,-5.624ZM411.456,12.737c1.323,-1.324 2.646,-1.985 3.97,-1.985c3.198,0 6.175,3.969 8.932,11.909c0.772,2.15 1.378,3.501 1.819,4.053c0.221,0.22 1.268,3.06 3.143,8.518c1.599,4.797 3.198,8.739 4.797,11.827c1.433,2.647 2.15,4.852 2.15,6.616c0,1.875 -0.882,3.253 -2.646,4.136c-0.882,0.441 -1.627,0.661 -2.233,0.661c-1.875,0 -3.584,-1.709 -5.128,-5.127c-1.213,-2.647 -2.04,-4.108 -2.481,-4.384c-0.11,-0.055 -0.386,-0.083 -0.827,-0.083c-0.882,0 -2.068,0.138 -3.557,0.414c-1.654,0.331 -4.41,0.689 -8.27,1.075l-4.631,0.414l-2.068,5.045c-2.261,5.679 -4.604,8.518 -7.03,8.518c-1.103,0 -2.15,-0.468 -3.143,-1.406c-0.992,-0.937 -1.488,-1.902 -1.488,-2.894c0,-1.103 1.24,-4.687 3.721,-10.752c2.316,-5.844 4.218,-10.917 5.707,-15.218c0.937,-2.922 1.833,-5.417 2.688,-7.484c0.854,-2.068 1.668,-4.205 2.44,-6.41c1.323,-3.529 2.701,-6.01 4.135,-7.443Z" style="fill:#fff;fill-rule:nonzero;"/><path d="M447.019,1.654c0.992,-1.103 2.095,-1.654 3.308,-1.654c1.268,0 2.481,0.662 3.639,1.985c0.937,1.103 1.406,2.04 1.406,2.812c0,0.386 -0.083,0.965 -0.248,1.737c-0.662,3.969 -2.206,5.954 -4.632,5.954c-0.22,0 -0.661,-0.055 -1.323,-0.165c-2.481,-0.551 -3.722,-2.591 -3.722,-6.12c0,-1.82 0.524,-3.336 1.572,-4.549ZM449.5,24.15c1.103,-0.938 2.178,-1.406 3.225,-1.406c1.048,0 2.096,0.524 3.143,1.571c0.717,0.717 1.158,1.475 1.324,2.275c0.165,0.799 0.248,2.715 0.248,5.748c0,3.363 0.303,7.719 0.909,13.067c0.331,2.591 0.497,4.493 0.497,5.706c0,1.103 -0.111,1.848 -0.331,2.234c-0.993,1.874 -2.426,2.811 -4.301,2.811c-1.103,0 -2.109,-0.385 -3.019,-1.157c-0.909,-0.772 -1.53,-1.82 -1.86,-3.143c-0.386,-1.544 -0.814,-4.742 -1.282,-9.594c-0.469,-4.852 -0.703,-8.656 -0.703,-11.413c0,-0.221 0.013,-0.524 0.041,-0.91c0.028,-0.386 0.041,-0.634 0.041,-0.744c0.111,-1.434 0.304,-2.481 0.579,-3.143c0.276,-0.662 0.772,-1.296 1.489,-1.902Z" style="fill:#fff;fill-rule:nonzero;"/></g><path d="M363.149,49.764c0,0 -0.575,4.579 -1.586,5.875c-0.903,1.159 -2.685,1.817 -4.479,1.901c-1.804,0.085 -1.574,-3.192 -4.608,-1.254c-0.877,0.56 -0.069,2.419 0.442,3.409c0.511,0.988 1.482,1.989 2.625,2.531c1.295,0.613 1.851,0.968 3.408,1.01c1.528,0.041 3.233,-0.414 4.193,-0.901c0.824,-0.417 2.064,-1.466 2.464,-2.208c0.702,-1.299 2.44,-5.579 2.44,-5.579l1.005,-2.566l-5.904,-2.218Z" style="fill:#fff;"/></svg>